<svg width="51" height="60" viewBox="0 0 51 60" fill="none" xmlns="http://www.w3.org/2000/svg">
<path d="M42.8318 9.97821C37.5961 9.04337 32.7747 6.19453 30.3666 4.57963C28.7933 3.52444 26.9635 2.96667 25.0749 2.96667C23.1863 2.96667 21.3565 3.52444 19.7833 4.57963C17.3753 6.19453 12.5538 9.04348 7.31818 9.97832C4.21734 10.5319 1.96667 13.2051 1.96667 16.3343V29.3168C1.96667 33.6057 3.17092 37.7865 5.54604 41.7433C7.40411 44.8387 9.97872 47.7972 13.1981 50.5364C18.6112 55.1423 23.9714 57.5442 24.1969 57.6441L25.0749 58.0333L25.9531 57.6441C26.1786 57.5442 31.5388 55.1423 36.9519 50.5364C40.1712 47.7972 42.7458 44.8387 44.604 41.7433C46.9791 37.7864 48.1833 33.6057 48.1833 29.3168V16.3342C48.1833 13.205 45.9327 10.5318 42.8318 9.97821Z" fill="#9A2E34"/>
<path d="M44.343 8.51236C38.6618 7.51074 33.4299 4.45841 30.8169 2.72817C29.1097 1.59761 27.1242 1 25.0749 1C23.0255 1 21.04 1.59761 19.3329 2.72817C16.7199 4.45841 11.4881 7.51086 5.80696 8.51247C2.44221 9.10559 0 11.9697 0 15.3225V29.2323C0 33.8275 1.30673 38.307 3.88399 42.5464C5.90019 45.8629 8.69392 49.0327 12.1873 51.9676C18.0611 56.9025 23.8774 59.4759 24.1221 59.583L25.0749 60L26.0279 59.583C26.2726 59.4759 32.0889 56.9025 37.9627 51.9676C41.456 49.0327 44.2497 45.8629 46.266 42.5464C48.8433 38.3069 50.15 33.8275 50.15 29.2323V15.3224C50.15 11.9696 47.7078 9.10547 44.343 8.51236ZM45.4628 29.2322C45.4628 36.0829 41.945 42.5274 35.0068 48.3869C30.9737 51.793 26.879 54.0131 25.075 54.9141C20.9284 52.8414 4.68682 43.7899 4.68682 29.2323V15.3224C4.68682 14.2052 5.50557 13.2499 6.63368 13.051C13.1601 11.9004 19.0313 8.48597 21.95 6.55326C22.8809 5.93687 23.9615 5.61099 25.0749 5.61099C26.1882 5.61099 27.2688 5.93687 28.1996 6.55338C31.1184 8.48609 36.9896 11.9005 43.516 13.0512C44.644 13.2501 45.4628 14.2053 45.4628 15.3226V29.2322Z" fill="url(#paint0_linear_11_161)"/>
<path fill-rule="evenodd" clip-rule="evenodd" d="M29.5883 17H20.5777C18.6018 17 17 18.597 17 20.567V24.134V35.892C17 37.862 18.6018 39.459 20.5777 39.459C22.5537 39.459 24.1554 37.862 24.1554 35.892V24.134H29.5883C31.5642 24.134 33.166 22.5371 33.166 20.567C33.166 18.597 31.5642 17 29.5883 17Z" fill="#9A2E34"/>
<path fill-rule="evenodd" clip-rule="evenodd" d="M29.5896 22.8128H24.1568H22.8317V24.1339V35.8918C22.8317 37.1303 21.8212 38.1377 20.5791 38.1377C19.3369 38.1377 18.3264 37.1303 18.3264 35.8918V24.1339V20.5669C18.3264 19.3285 19.3369 18.321 20.5791 18.321H29.5896C30.8317 18.321 31.8422 19.3285 31.8422 20.5669C31.8422 21.8053 30.8317 22.8128 29.5896 22.8128ZM29.5883 17H20.5777C18.6018 17 17 18.597 17 20.567V24.134V35.892C17 37.862 18.6018 39.459 20.5777 39.459C22.5537 39.459 24.1554 37.862 24.1554 35.892V24.134H29.5883C31.5642 24.134 33.166 22.5371 33.166 20.567C33.166 18.597 31.5642 17 29.5883 17Z" fill="#F2994A"/>
<path fill-rule="evenodd" clip-rule="evenodd" d="M11.5777 17H20.5884C22.5643 17 24.1661 18.597 24.1661 20.567V24.134V35.892C24.1661 37.862 22.5643 39.459 20.5884 39.459C18.6124 39.459 17.0106 37.862 17.0106 35.892V24.134H11.5777C9.60177 24.134 8 22.5371 8 20.567C8 18.597 9.60177 17 11.5777 17Z" fill="#9A2E34"/>
<path d="M11.5764 22.8128H17.0093H18.3344V24.1339V35.8918C18.3344 37.1303 19.3449 38.1377 20.587 38.1377C21.8292 38.1377 22.8397 37.1303 22.8397 35.8918V24.1339L24.1661 24.134V35.892C24.1661 37.862 22.5643 39.459 20.5884 39.459C18.6124 39.459 17.0106 37.862 17.0106 35.892V24.134H11.5777C9.60177 24.134 8 22.5371 8 20.567C8 18.597 9.60177 17 11.5777 17H20.5884H24V18.321H20.587H11.5764C10.3343 18.321 9.32379 19.3285 9.32379 20.5669C9.32379 21.8053 10.3343 22.8128 11.5764 22.8128Z" fill="#F2994A"/>
<path fill-rule="evenodd" clip-rule="evenodd" d="M38.5883 21H29.5777C27.6018 21 26 22.597 26 24.567V28.134V39.892C26 41.862 27.6018 43.459 29.5777 43.459C31.5537 43.459 33.1554 41.862 33.1554 39.892V28.134H38.5883C40.5642 28.134 42.166 26.5371 42.166 24.567C42.166 22.597 40.5642 21 38.5883 21Z" fill="#9A2E34"/>
<path fill-rule="evenodd" clip-rule="evenodd" d="M38.5896 26.8128H33.1568H31.8317V28.1339V39.8918C31.8317 41.1303 30.8212 42.1377 29.5791 42.1377C28.3369 42.1377 27.3264 41.1303 27.3264 39.8918V28.1339V24.5669C27.3264 23.3285 28.3369 22.321 29.5791 22.321H38.5896C39.8317 22.321 40.8422 23.3285 40.8422 24.5669C40.8422 25.8053 39.8317 26.8128 38.5896 26.8128ZM38.5883 21H29.5777C27.6018 21 26 22.597 26 24.567V28.134V39.892C26 41.862 27.6018 43.459 29.5777 43.459C31.5537 43.459 33.1554 41.862 33.1554 39.892V28.134H38.5883C40.5642 28.134 42.166 26.5371 42.166 24.567C42.166 22.597 40.5642 21 38.5883 21Z" fill="#F5CC6A"/>
<path fill-rule="evenodd" clip-rule="evenodd" d="M20.5777 21H29.5884C31.5643 21 33.1661 22.597 33.1661 24.567V28.134V39.892C33.1661 41.862 31.5643 43.459 29.5884 43.459C27.6124 43.459 26.0106 41.862 26.0106 39.892V28.134H20.5777C18.6018 28.134 17 26.5371 17 24.567C17 22.597 18.6018 21 20.5777 21Z" fill="#9A2E34"/>
<path d="M20.5764 26.8128H26.0093H27.3344V28.1339V39.8918C27.3344 41.1303 28.3449 42.1377 29.587 42.1377C30.8292 42.1377 31.8397 41.1303 31.8397 39.8918V28.1339V26.8128H33.1661V28.134V39.892C33.1661 41.862 31.5643 43.459 29.5884 43.459C27.6124 43.459 26.0106 41.862 26.0106 39.892V28.134H20.5777C18.6018 28.134 17 26.5371 17 24.567C17 22.597 18.6018 21 20.5777 21H29.5884H33V22.321H29.587H20.5764C19.3343 22.321 18.3238 23.3285 18.3238 24.5669C18.3238 25.8053 19.3343 26.8128 20.5764 26.8128Z" fill="#F5CC6A"/>
<defs>
<linearGradient id="paint0_linear_11_161" x1="25.075" y1="1" x2="25.075" y2="60" gradientUnits="userSpaceOnUse">
<stop stop-color="#BF953F"/>
<stop offset="0.336805" stop-color="#FCF6BA"/>
<stop offset="1" stop-color="#B38728"/>
</linearGradient>
</defs>
</svg>
